<svg width="641" height="452" viewBox="0 0 641 452" fill="none" xmlns="http://www.w3.org/2000/svg">
<g clip-path="url(#clip0_1322_8833)">
<g opacity="0.8" clip-path="url(#clip1_1322_8833)">
<path d="M389.513 106.464C389.1 106.777 388.677 106.63 388.367 106.52C388.087 106.425 387.986 106.404 387.897 106.473C387.807 106.54 387.795 106.643 387.815 106.94C387.833 107.269 387.857 107.717 387.442 108.028C387.03 108.343 386.607 108.194 386.295 108.086C386.016 107.989 385.915 107.968 385.824 108.035C385.736 108.104 385.727 108.207 385.744 108.503C385.763 108.831 385.786 109.28 385.374 109.594C384.961 109.905 384.538 109.758 384.227 109.648C383.949 109.552 383.847 109.531 383.758 109.598C383.667 109.668 383.658 109.77 383.678 110.067C383.694 110.395 383.718 110.843 383.305 111.155C382.892 111.468 382.47 111.319 382.158 111.212C381.88 111.113 381.778 111.095 381.689 111.161L381.251 110.581C381.665 110.268 382.089 110.415 382.4 110.524C382.678 110.623 382.779 110.641 382.869 110.576C382.958 110.508 382.967 110.404 382.952 110.108C382.933 109.779 382.907 109.33 383.32 109.017C383.735 108.704 384.158 108.854 384.467 108.961C384.749 109.059 384.848 109.08 384.938 109.01C385.027 108.944 385.035 108.841 385.021 108.545C384.999 108.217 384.976 107.767 385.388 107.454C385.803 107.142 386.226 107.29 386.535 107.397C386.815 107.497 386.917 107.515 387.006 107.448C387.095 107.381 387.104 107.276 387.087 106.979C387.07 106.653 387.044 106.203 387.457 105.89C387.873 105.577 388.295 105.726 388.606 105.833C388.886 105.931 388.989 105.952 389.077 105.885L389.513 106.464Z" fill="#60CAC9"/>
<path d="M380.833 205.259L386.639 213.763L383.011 216.254L380.124 212.022L374.555 217.347L370.205 210.979L364.629 216.299L360.281 209.93L354.714 215.256L350.364 208.886L344.787 214.206L340.436 207.838L334.855 213.157L329.037 204.658L332.662 202.164L335.564 206.402L341.149 201.081L345.498 207.444L351.075 202.123L355.423 208.491L360.989 203.168L365.339 209.536L370.914 204.214L375.261 210.581L380.833 205.259Z" fill="#F03B87"/>
<path d="M271.277 42.8055C268.916 43.2665 267.374 45.5612 267.831 47.9289C268.291 50.2976 270.579 51.8458 272.941 51.3838C275.305 50.9247 276.846 48.63 276.388 46.2622C275.929 43.8917 273.64 42.3473 271.277 42.8055Z" fill="#548ED2"/>
<path d="M418.457 64.0734L414.993 73.1137C414.877 73.4182 414.535 73.5729 414.23 73.4562C413.923 73.3376 413.77 72.9952 413.887 72.6869L417.348 63.6465C417.466 63.3373 417.81 63.1855 418.116 63.3041C418.421 63.4208 418.573 63.7651 418.457 64.0734Z" fill="#5FC232"/>
<path d="M448.992 118.46C448.635 117.695 449.014 117.068 449.29 116.607C449.541 116.195 449.606 116.039 449.529 115.875C449.45 115.707 449.29 115.658 448.814 115.582C448.286 115.502 447.564 115.391 447.207 114.624C446.849 113.857 447.23 113.228 447.506 112.772C447.756 112.358 447.822 112.201 447.745 112.035C447.668 111.871 447.508 111.822 447.031 111.749C446.502 111.666 445.78 111.553 445.424 110.789C445.068 110.022 445.446 109.396 445.723 108.938C445.973 108.524 446.039 108.369 445.962 108.203C445.884 108.038 445.725 107.989 445.248 107.913C444.719 107.832 443.996 107.721 443.641 106.954C443.285 106.187 443.663 105.562 443.939 105.102C444.19 104.69 444.255 104.536 444.179 104.37L445.252 103.869C445.608 104.635 445.228 105.26 444.953 105.719C444.703 106.133 444.637 106.287 444.714 106.453C444.792 106.619 444.951 106.666 445.426 106.741C445.954 106.825 446.677 106.936 447.035 107.703C447.392 108.469 447.013 109.094 446.735 109.552C446.486 109.967 446.418 110.121 446.497 110.287C446.574 110.453 446.733 110.503 447.211 110.576C447.739 110.658 448.46 110.767 448.817 111.537C449.174 112.303 448.793 112.928 448.516 113.386C448.269 113.798 448.203 113.955 448.278 114.122C448.357 114.288 448.518 114.338 448.996 114.411C449.522 114.494 450.245 114.605 450.603 115.372C450.957 116.14 450.58 116.765 450.302 117.224C450.054 117.638 449.989 117.795 450.065 117.959L448.992 118.46Z" fill="#60CAC9"/>
<path d="M372.884 43.2302L393.289 31.2682L386.209 23.6546L372.884 43.2302Z" fill="#FBC907"/>
<path d="M289.192 99.1033L268.51 95.97C267.849 95.8695 267.263 95.4919 266.896 94.9313C266.53 94.3706 266.42 93.6791 266.593 93.0321V93.0303C266.766 92.3833 267.206 91.8397 267.802 91.5381C268.399 91.2364 269.096 91.2032 269.718 91.4479L289.192 99.1033Z" fill="#F25C19"/>
<path d="M320.952 105.384L320.046 101.191L321.656 100.842L322.299 103.83L325.953 104.1L326.73 107.69L330.383 107.958L331.159 111.552L334.816 111.824L335.723 116.019L334.115 116.369L333.47 113.377L329.812 113.107L329.035 109.517L325.383 109.247L324.606 105.655L320.952 105.384Z" fill="#B61692"/>
<path d="M446.502 256.557C448.057 257.453 448.16 259.01 448.235 260.145C448.302 261.172 448.379 261.523 448.714 261.717C449.05 261.912 449.391 261.802 450.312 261.348C451.33 260.845 452.724 260.159 454.275 261.057C455.83 261.956 455.933 263.51 456.008 264.646C456.074 265.669 456.151 266.021 456.485 266.216C456.821 266.412 457.16 266.299 458.081 265.845C459.098 265.341 460.491 264.651 462.043 265.553C463.595 266.449 463.698 268.004 463.771 269.139C463.841 270.166 463.914 270.516 464.251 270.71C464.585 270.907 464.925 270.796 465.846 270.339C466.863 269.836 468.256 269.149 469.808 270.047C471.361 270.944 471.464 272.5 471.537 273.636C471.605 274.66 471.679 275.008 472.014 275.205L470.757 277.389C469.205 276.489 469.104 274.936 469.029 273.801C468.96 272.774 468.886 272.422 468.552 272.23C468.217 272.035 467.875 272.146 466.956 272.602C465.94 273.103 464.545 273.793 462.993 272.895C461.44 271.995 461.339 270.44 461.264 269.308C461.195 268.278 461.122 267.927 460.786 267.734C460.449 267.54 460.112 267.651 459.19 268.105C458.174 268.609 456.78 269.297 455.228 268.398C453.677 267.497 453.573 265.945 453.498 264.809C453.43 263.784 453.357 263.432 453.021 263.238C452.684 263.043 452.343 263.154 451.421 263.609C450.405 264.111 449.01 264.8 447.457 263.899C445.904 263.001 445.802 261.444 445.727 260.311C445.658 259.284 445.584 258.934 445.246 258.74L446.502 256.557Z" fill="#60CAC9"/>
<path d="M323.887 176.828L325.092 181.9L322.927 182.418L322.327 179.894L318.733 181.397L317.83 177.597L314.234 179.097L313.329 175.296L309.736 176.8L308.833 172.999L305.234 174.499L304.328 170.699L300.73 172.197L299.517 167.121L301.681 166.6L302.287 169.132L305.887 167.634L306.791 171.431L310.39 169.931L311.291 173.732L314.887 172.229L315.791 176.03L319.39 174.529L320.291 178.328L323.887 176.828Z" fill="#F03B87"/>
<path d="M333.921 52.9774L335.537 80.918L347.319 77.5314L333.921 52.9774Z" fill="#FBC907"/>
<path d="M491.065 329.688L464.234 301.247C463.377 300.338 462.945 299.106 463.049 297.858C463.154 296.611 463.784 295.468 464.78 294.715C465.778 293.961 467.048 293.669 468.273 293.912C469.497 294.155 470.559 294.91 471.195 295.987L491.065 329.688Z" fill="#F25C19"/>
<path d="M448.735 146.332C452.295 148.563 452.41 152.208 452.495 154.868C452.57 157.276 452.716 158.103 453.487 158.587C454.259 159.07 455.064 158.839 457.256 157.853C459.678 156.761 462.996 155.266 466.556 157.496C470.115 159.726 470.229 163.372 470.312 166.034C470.385 168.44 470.532 169.267 471.302 169.747C472.071 170.23 472.873 170.001 475.063 169.011C477.484 167.916 480.8 166.421 484.357 168.652C487.918 170.881 488.029 174.525 488.111 177.187C488.186 179.591 488.332 180.418 489.101 180.9C489.87 181.381 490.674 181.151 492.862 180.163C495.285 179.069 498.599 177.572 502.157 179.805C505.717 182.035 505.828 185.678 505.911 188.34C505.984 190.744 506.13 191.571 506.899 192.053L503.781 197.055C500.222 194.826 500.109 191.183 500.028 188.52C499.953 186.115 499.809 185.289 499.04 184.808C498.272 184.326 497.468 184.555 495.278 185.546C492.856 186.639 489.542 188.135 485.982 185.904C482.423 183.676 482.311 180.03 482.23 177.369C482.153 174.962 482.008 174.136 481.24 173.655C480.47 173.174 479.667 173.403 477.478 174.391C475.056 175.487 471.74 176.982 468.183 174.753C464.623 172.521 464.512 168.878 464.427 166.217C464.354 163.811 464.207 162.982 463.437 162.5C462.665 162.018 461.859 162.248 459.668 163.235C457.249 164.327 453.928 165.821 450.367 163.591C446.809 161.361 446.695 157.714 446.611 155.055C446.535 152.648 446.388 151.82 445.616 151.334L448.735 146.332Z" fill="#60CAC9"/>
<path d="M454.498 30.8251C450.377 34.9563 450.377 41.6535 454.496 45.7848C458.621 49.9198 465.301 49.9217 469.422 45.7886C473.545 41.6535 473.545 34.9544 469.422 30.8232C465.301 26.691 458.621 26.691 454.498 30.8251Z" fill="#548ED2"/>
<path d="M214.248 74.4602L229.53 36.8353L185.026 46.3214L214.248 74.4602Z" fill="#FBC907"/>
<path d="M484.249 212.263L485.903 215.507L489.468 216.208L486.901 218.788L487.339 222.403L484.098 220.754L480.805 222.288L481.368 218.692L478.894 216.021L482.482 215.448L484.249 212.263Z" fill="#AFD819"/>
<path d="M490.506 97.1608L476.835 73.4245C476.372 72.6173 476.647 71.589 477.449 71.1232C478.254 70.6584 479.28 70.9354 479.743 71.7379L493.412 95.4808C493.876 96.2852 493.601 97.3135 492.798 97.7793C491.996 98.2451 490.969 97.9681 490.506 97.1608Z" fill="#5FC232"/>
<path d="M354.574 170.689L357.441 160.388C357.533 160.059 357.76 159.785 358.067 159.633C358.373 159.482 358.728 159.469 359.045 159.598C359.361 159.726 359.607 159.983 359.724 160.304C359.839 160.626 359.812 160.982 359.649 161.282L354.574 170.689Z" fill="#F25C19"/>
<path d="M327.722 16.978L328.376 13.1836L329.83 13.4369L329.366 16.1376L332.316 17.5956L331.758 20.8456L334.707 22.3017L334.147 25.5535L337.099 27.0116L336.449 30.8098L334.993 30.5565L335.459 27.8501L332.506 26.3921L333.064 23.1421L330.114 21.686L330.672 18.4342L327.722 16.978Z" fill="#B61692"/>
<path d="M421.314 293.333L412.841 280.453C412.571 280.042 412.487 279.534 412.613 279.057C412.739 278.58 413.061 278.18 413.499 277.955C413.938 277.73 414.449 277.704 414.909 277.884C415.367 278.061 415.728 278.427 415.901 278.888L421.314 293.333Z" fill="#F25C19"/>
<path d="M485.645 129.72C485.58 129.931 485.395 129.986 485.262 130.026C485.14 130.064 485.1 130.082 485.085 130.13C485.073 130.175 485.094 130.214 485.174 130.311C485.264 130.422 485.386 130.571 485.32 130.784C485.254 130.996 485.071 131.053 484.936 131.093C484.814 131.131 484.775 131.148 484.76 131.194C484.747 131.241 484.769 131.278 484.85 131.377C484.938 131.486 485.059 131.635 484.995 131.849C484.931 132.06 484.747 132.117 484.614 132.157C484.489 132.195 484.45 132.212 484.435 132.258C484.422 132.306 484.445 132.343 484.526 132.441C484.614 132.551 484.736 132.7 484.672 132.913C484.606 133.124 484.422 133.181 484.287 133.221C484.164 133.259 484.126 133.276 484.112 133.323L483.813 133.233C483.879 133.02 484.063 132.963 484.199 132.924C484.319 132.886 484.36 132.867 484.373 132.822C484.386 132.776 484.364 132.736 484.286 132.64C484.195 132.531 484.073 132.381 484.138 132.168C484.204 131.953 484.386 131.899 484.522 131.859C484.644 131.821 484.684 131.803 484.698 131.758C484.711 131.71 484.689 131.672 484.607 131.575C484.52 131.465 484.398 131.316 484.463 131.104C484.528 130.89 484.711 130.834 484.847 130.795C484.969 130.757 485.008 130.739 485.023 130.691C485.037 130.646 485.014 130.608 484.933 130.511C484.845 130.399 484.723 130.252 484.789 130.04C484.854 129.826 485.037 129.77 485.172 129.728C485.294 129.692 485.333 129.674 485.349 129.627L485.645 129.72Z" fill="#60CAC9"/>
<path d="M390.885 152.343L390.235 146.902L385.602 150.94L390.885 152.343Z" fill="#FBC907"/>
<path d="M381.248 188.646L388.197 185.184C388.42 185.074 388.679 185.063 388.908 185.156C389.138 185.248 389.319 185.435 389.404 185.668C389.488 185.902 389.47 186.161 389.353 186.38C389.236 186.6 389.031 186.758 388.79 186.817L381.248 188.646Z" fill="#F25C19"/>
<path d="M287.381 136.217L287.066 136.21L287.068 136.078L287.224 136.079L287.188 135.85L287.421 135.852L287.388 135.619L287.621 135.621L287.585 135.39L287.819 135.394L287.784 135.164L288.017 135.166L287.982 134.935L288.293 134.936V135.071L288.137 135.069L288.171 135.299L287.939 135.298L287.974 135.527H287.741L287.777 135.759L287.542 135.755L287.577 135.987L287.345 135.985L287.381 136.217Z" fill="#F03B87"/>
<path d="M480.729 348.826L487.504 344.412L491.906 351.208L485.13 355.62L480.729 348.826Z" fill="#F57A3B"/>
<path d="M229.903 15.9851L236.972 17.6205L235.341 24.7095L228.271 23.0731L229.903 15.9851Z" fill="#F57A3B"/>
<path d="M193.841 16.2273L202.987 22.5526C203.279 22.7547 203.471 23.0725 203.515 23.4254C203.561 23.7792 203.452 24.1349 203.218 24.4043C202.986 24.6728 202.65 24.8284 202.295 24.8331C201.939 24.8388 201.6 24.6908 201.358 24.429L193.841 16.2273Z" fill="#F25C19"/>
<path d="M418.563 36.3492C418.697 35.5107 419.364 35.1995 419.85 34.9756C420.29 34.7717 420.431 34.6778 420.461 34.4975C420.49 34.3116 420.385 34.1807 420.027 33.8524C419.634 33.4863 419.095 32.9864 419.227 32.1459C419.36 31.3073 420.027 30.9981 420.513 30.7723C420.955 30.5684 421.096 30.4773 421.125 30.2961C421.152 30.114 421.048 29.983 420.69 29.6529C420.298 29.2877 419.759 28.7888 419.892 27.9483C420.023 27.1107 420.69 26.8014 421.177 26.5747C421.618 26.3717 421.759 26.2797 421.788 26.0985C421.815 25.9173 421.708 25.7835 421.353 25.4544C420.961 25.091 420.422 24.5892 420.553 23.7497C420.686 22.9111 421.353 22.6019 421.841 22.3771C422.281 22.175 422.423 22.0801 422.449 21.899L423.625 22.0877C423.492 22.9253 422.825 23.2346 422.338 23.4614C421.898 23.6644 421.757 23.7573 421.728 23.9375C421.699 24.1159 421.807 24.2487 422.162 24.5807C422.557 24.945 423.093 25.4449 422.962 26.2844C422.828 27.123 422.164 27.4313 421.675 27.658C421.235 27.861 421.094 27.9521 421.064 28.1351C421.036 28.3154 421.142 28.4482 421.498 28.7764C421.891 29.1407 422.432 29.6416 422.299 30.482C422.167 31.3206 421.5 31.627 421.012 31.8556C420.572 32.0586 420.431 32.1516 420.403 32.3318C420.373 32.5149 420.479 32.6468 420.835 32.9778C421.23 33.3421 421.767 33.843 421.635 34.6835C421.502 35.522 420.835 35.8303 420.349 36.0561C419.909 36.26 419.766 36.353 419.738 36.5352L418.563 36.3492Z" fill="#60CAC9"/>
<path d="M447.316 206.916C446.129 206.597 444.91 207.302 444.59 208.493C444.272 209.683 444.975 210.908 446.162 211.226C447.35 211.543 448.569 210.838 448.887 209.647C449.207 208.458 448.503 207.234 447.316 206.916Z" fill="#548ED2"/>
<path d="M298.435 19.2372L304.007 23.6436L305.264 21.1686L298.435 19.2372Z" fill="#FBC907"/>
<path d="M297.243 84.4905L301.914 56.7691C302.063 55.8831 302.582 55.1024 303.341 54.6233C304.099 54.1443 305.025 54.0124 305.886 54.26H305.887C306.749 54.5076 307.465 55.1119 307.854 55.921C308.245 56.7292 308.273 57.6665 307.931 58.4984L297.243 84.4905Z" fill="#F25C19"/>
<path d="M174.054 37.7536L172.111 38.4395L171.816 37.6046L172.783 37.266L172.045 35.9076L173.501 35.3934L172.762 34.0341L174.216 33.5209L173.479 32.1644L174.935 31.6502L174.196 30.2909L175.651 29.7767L174.914 28.4183L176.856 27.7296L177.149 28.5625L176.183 28.9068L176.919 30.2652L175.464 30.7813L176.202 32.1369L174.747 32.6538L175.487 34.0104L174.031 34.5245L174.769 35.881L173.315 36.3971L174.054 37.7536Z" fill="#F03B87"/>
<path d="M456.384 224.343C453.788 225.24 452.405 228.079 453.302 230.684C454.194 233.292 457.027 234.676 459.625 233.779C462.226 232.881 463.606 230.042 462.71 227.436C461.816 224.829 458.985 223.446 456.384 224.343Z" fill="#548ED2"/>
<path d="M441.558 414.412L446.431 424.795L442.45 426.673L438.976 419.277L429.292 420.777L425.117 411.888L415.436 413.39L411.257 404.497L401.566 405.993L396.681 395.609L400.663 393.727L404.143 401.131L413.838 399.632L418.013 408.524L427.698 407.021L431.874 415.913L441.558 414.412Z" fill="#B61692"/>
<path d="M246.159 183.376L257.494 182.119L255.863 177.371L246.159 183.376Z" fill="#FBC907"/>
<path d="M186.001 177.257L187.107 172.453L191.897 173.561L190.792 178.365L186.001 177.257Z" fill="#F57A3B"/>
<path d="M136.885 262.766L158.605 219.26C159.299 217.87 160.552 216.841 162.048 216.433C163.545 216.026 165.144 216.277 166.445 217.124L166.447 217.125C167.748 217.971 168.627 219.334 168.864 220.871C169.102 222.408 168.674 223.974 167.689 225.175L136.885 262.766Z" fill="#F25C19"/>
<path d="M297.001 242.779L305.304 242.49L305.593 250.815L297.292 251.105L297.001 242.779Z" fill="#F57A3B"/>
<path d="M316.265 377.514L351.311 399.474C352.499 400.219 352.862 401.787 352.118 402.977C351.376 404.17 349.811 404.532 348.624 403.79L313.575 381.828C312.387 381.085 312.027 379.515 312.768 378.324C313.511 377.133 315.076 376.77 316.265 377.514Z" fill="#5FC232"/>
<path d="M183.144 397.342C183.254 396.554 183.871 396.256 184.322 396.037C184.73 395.841 184.86 395.753 184.883 395.58C184.908 395.411 184.806 395.291 184.47 394.987C184.096 394.652 183.585 394.194 183.696 393.411C183.805 392.623 184.423 392.323 184.874 392.106C185.281 391.906 185.412 391.819 185.435 391.648C185.459 391.48 185.359 391.362 185.021 391.057C184.647 390.724 184.135 390.264 184.246 389.479C184.355 388.693 184.973 388.396 185.423 388.176C185.832 387.978 185.962 387.892 185.986 387.721C186.011 387.552 185.909 387.43 185.571 387.128C185.197 386.794 184.686 386.337 184.797 385.553C184.906 384.766 185.524 384.467 185.975 384.247C186.383 384.051 186.512 383.965 186.536 383.793L187.636 383.946C187.525 384.732 186.909 385.03 186.458 385.251C186.05 385.447 185.919 385.538 185.896 385.705C185.871 385.876 185.973 385.997 186.31 386.298C186.682 386.631 187.194 387.091 187.086 387.875C186.974 388.66 186.357 388.96 185.908 389.179C185.499 389.377 185.368 389.466 185.344 389.634C185.321 389.803 185.423 389.926 185.759 390.227C186.133 390.561 186.644 391.02 186.535 391.806C186.424 392.59 185.806 392.89 185.356 393.107C184.949 393.305 184.818 393.394 184.793 393.564C184.771 393.733 184.872 393.856 185.209 394.159C185.582 394.493 186.091 394.95 185.983 395.736C185.872 396.521 185.255 396.82 184.804 397.038C184.397 397.237 184.266 397.328 184.243 397.496L183.144 397.342Z" fill="#60CAC9"/>
<path d="M439.942 364.562C441.813 364.197 443.033 362.383 442.67 360.505C442.305 358.631 440.498 357.406 438.625 357.773C436.755 358.136 435.534 359.951 435.898 361.827C436.261 363.703 438.07 364.927 439.942 364.562Z" fill="#548ED2"/>
<path d="M236.219 358.598L222.326 356.851L229.465 370.897L236.219 358.598Z" fill="#FBC907"/>
<path d="M389.392 369.084L393.712 370.917L397.82 368.642L397.42 373.331L400.845 376.54L396.275 377.607L394.285 381.868L391.864 377.841L387.208 377.259L390.282 373.703L389.392 369.084Z" fill="#AFD819"/>
<path d="M187.11 333.069L164.973 330.108C164.266 330.014 163.632 329.623 163.231 329.03C162.829 328.438 162.698 327.702 162.872 327.006C163.044 326.312 163.504 325.724 164.136 325.391C164.767 325.057 165.51 325.008 166.179 325.259L187.11 333.069Z" fill="#F25C19"/>
<path d="M224.972 259.182L228.463 261.199L232.202 259.689L231.369 263.643L233.957 266.741L229.949 267.171L227.809 270.594L226.165 266.905L222.255 265.922L225.246 263.213L224.972 259.182Z" fill="#AFD819"/>
<path d="M291.375 383.241L298.111 387.395L296.337 390.283L292.988 388.213L290.735 393.705L285.69 390.595L283.432 396.082L278.389 392.973L276.136 398.461L271.091 395.351L268.833 400.84L263.786 397.728L261.522 403.218L254.779 399.069L256.548 396.181L259.912 398.247L262.176 392.754L267.22 395.864L269.478 390.374L274.522 393.487L276.775 387.997L281.821 391.108L284.078 385.616L289.121 388.727L291.375 383.241Z" fill="#F03B87"/>
<path d="M339.682 285.788L338.115 286.903L337.638 286.231L338.419 285.677L337.408 284.65L338.58 283.816L337.57 282.788L338.742 281.952L337.734 280.926L338.906 280.088L337.896 279.062L339.069 278.226L338.058 277.196L339.624 276.077L340.102 276.747L339.32 277.307L340.331 278.337L339.157 279.171L340.169 280.199L338.996 281.035L340.007 282.061L338.833 282.897L339.843 283.927L338.671 284.761L339.682 285.788Z" fill="#F03B87"/>
<path d="M268.166 232.577L253.394 240.555L258.227 246.136L268.166 232.577Z" fill="#FBC907"/>
<path d="M236.302 413.698L230.447 418.286L225.873 412.416L231.728 407.83L236.302 413.698Z" fill="#F57A3B"/>
<path d="M178.773 126.787L191.254 125.693L192.343 138.205L179.866 139.3L178.773 126.787Z" fill="#F57A3B"/>
<path d="M374.23 416.124L378.117 428.127C378.25 428.532 378.027 428.969 377.621 429.101C377.216 429.235 376.779 429.012 376.648 428.604L372.759 416.604C372.627 416.194 372.849 415.758 373.255 415.626C373.662 415.496 374.096 415.717 374.23 416.124Z" fill="#5FC232"/>
<path d="M334.694 350.373L331.789 345.753L333.562 344.633L335.63 347.926L340.115 346.653L342.603 350.611L347.088 349.335L349.577 353.293L354.068 352.024L356.975 356.647L355.202 357.766L353.131 354.469L348.639 355.742L346.152 351.783L341.665 353.058L339.18 349.1L334.694 350.373Z" fill="#B61692"/>
<path d="M149.475 197.434C147.977 194.487 144.383 193.315 141.446 194.818C138.507 196.318 137.34 199.922 138.837 202.867C140.333 205.816 143.928 206.985 146.867 205.484C149.804 203.981 150.973 200.38 149.475 197.434Z" fill="#548ED2"/>
<path d="M470.915 421.686L460.903 417.165L459.939 421.349L470.915 421.686Z" fill="#FBC907"/>
<path d="M349.954 255.179L341.239 261.075L335.36 252.335L344.077 246.439L349.954 255.179Z" fill="#F57A3B"/>
<path d="M291.651 362.475L293.81 357.612L298.66 359.778L296.499 364.639L291.651 362.475Z" fill="#F57A3B"/>
<path d="M148.709 51.7906L149.658 57.1892C149.692 57.3694 149.57 57.543 149.387 57.5771C149.204 57.6103 149.03 57.4861 148.998 57.3058L148.049 51.9073C148.016 51.7251 148.138 51.5497 148.32 51.5174C148.504 51.4861 148.677 51.6066 148.709 51.7906Z" fill="#5FC232"/>
<path d="M182.076 423.607L184.427 422.742L184.76 423.648L183.085 424.263L183.226 426.408L181.214 427.155L181.355 429.299L179.34 430.045L179.482 432.191L177.129 433.064L176.796 432.156L178.473 431.535L178.331 429.386L180.346 428.643L180.203 426.498L182.217 425.757L182.076 423.607Z" fill="#B61692"/>
<path d="M157.982 369.914L156.995 371.383L157.539 373.071L155.842 372.584L154.411 373.624L154.346 371.854L152.92 370.809L154.58 370.203L155.126 368.521L156.216 369.912L157.982 369.914Z" fill="#AFD819"/>
<path d="M160.401 88.9151L149.749 74.7409C149.388 74.258 149.483 73.5779 149.962 73.2146C150.443 72.8531 151.123 72.9489 151.484 73.4299L162.137 87.6022C162.498 88.0841 162.402 88.7681 161.923 89.1304C161.444 89.4928 160.764 89.3979 160.401 88.9151Z" fill="#5FC232"/>
<path d="M277.208 288.057L281.16 283.503L285.703 287.462L281.754 292.018L277.208 288.057Z" fill="#F57A3B"/>
<path d="M211.158 427.968L211.177 427.599L211.32 427.605L211.306 427.87L211.605 427.973L211.59 428.29L211.889 428.396L211.872 428.713L212.173 428.817L212.154 429.188L212.013 429.182L212.024 428.919L211.725 428.813L211.741 428.494L211.442 428.39L211.459 428.072L211.158 427.968Z" fill="#B61692"/>
<path d="M182.221 289.508L196.94 288.913L195.265 282.648L182.221 289.508Z" fill="#FBC907"/>
<path d="M197.775 317.907L209.656 308.685L205.232 304.83L197.775 317.907Z" fill="#FBC907"/>
</g>
<g clip-path="url(#clip2_1322_8833)">
<path opacity="0.7" d="M320.502 364.21C387.322 364.21 441.492 354.502 441.492 342.525C441.492 330.549 387.322 320.841 320.502 320.841C253.681 320.841 199.512 330.549 199.512 342.525C199.512 354.502 253.681 364.21 320.502 364.21Z" fill="#BDDBDB"/>
<path d="M238.811 343.239C238.659 346.447 236.367 346.6 236.367 346.6V298.863C237.214 298.991 238.041 299.13 238.845 299.278C238.879 303.088 238.914 341.092 238.811 343.239Z" fill="#748796"/>
<path d="M222.466 296.955V346.522C219.58 346.061 220.327 343.698 220.327 343.698L220.46 296.845C221.103 296.877 221.774 296.914 222.466 296.955Z" fill="#748796"/>
<path d="M236.367 298.323V346.6C236.367 346.6 227.66 346.6 223.535 346.6C223.132 346.6 222.777 346.573 222.466 346.522V296.955C226.731 297.204 231.792 297.626 236.367 298.323Z" fill="#596E7C"/>
<path d="M423.634 298.208C423.543 303.347 423.098 345.977 421.06 348.128C418.434 350.901 401.871 350.189 401.321 348.388V348.386C401.295 348.304 401.306 348.216 401.353 348.128C402.143 346.66 402.183 303.342 402.149 297.756C408.789 297.87 418.478 298.089 423.634 298.208Z" fill="#596E7C"/>
<path d="M401.353 348.128C401.305 348.216 401.295 348.303 401.321 348.386V348.388C401.281 348.418 401.241 348.433 401.2 348.433C400.441 348.433 399.825 342.996 399.825 336.289C399.825 334.044 399.894 299.523 400.015 297.72C400.679 297.731 401.394 297.742 402.149 297.756C402.182 303.342 402.143 346.66 401.353 348.128Z" fill="#748796"/>
<path d="M361.53 314.367H286.091C282.639 314.367 279.814 311.542 279.814 308.09V306.742C279.814 303.29 282.639 300.466 286.091 300.466H361.53C364.982 300.466 367.807 303.29 367.807 306.742V308.09C367.807 311.542 364.983 314.367 361.53 314.367Z" fill="#748796"/>
<path d="M426.59 295.563C426.629 296.66 426.306 297.757 425.805 298.782V298.783C424.35 301.755 421.396 304.118 421.396 304.118C421.396 304.118 410.989 304.133 394.882 304.155C361.859 304.198 304.871 304.262 264.454 304.252C260.476 304.252 256.658 304.251 253.041 304.248C251.269 304.246 249.544 304.245 247.871 304.243C247.575 304.243 247.279 304.243 246.985 304.242C229.941 304.227 218.541 304.188 217.76 304.118C217.234 304.071 216.851 303.866 216.581 303.554C216.472 303.435 216.384 303.299 216.31 303.151C216.31 303.15 216.31 303.15 216.31 303.15C215.343 301.216 216.843 297.091 216.843 297.091L217.302 294.647C217.302 294.647 216.911 281.982 217.192 273.273V273.197L217.705 266.614C217.768 266.275 217.836 265.992 217.913 265.774C219.288 261.802 223.718 262.871 223.718 262.871C223.107 262.566 223.871 249.428 223.871 249.428L223.718 245.303C222.648 242.554 224.634 230.638 224.634 230.638C224.634 230.638 225.245 229.416 224.176 226.361C223.562 224.605 224.101 220.612 224.671 217.534C224.856 216.541 225.042 215.644 225.195 214.948C230.782 216.226 258.302 212.577 268.524 213.771H330.546C334.213 213.771 371.335 213.313 375.001 213.924C378.667 214.535 401.735 214.382 403.415 214.077C405.096 213.771 414.262 213.313 416.248 213.313C417.393 213.313 418.487 214.025 419.472 214.538L419.44 216.86L418.828 261.497L418.799 262.108C423.076 262.413 425.062 266.232 425.673 268.371C426.284 270.51 426.437 291.286 426.59 295.563Z" fill="#6DA55B"/>
<path d="M419.562 245.303C418.34 247.442 419.41 249.122 419.41 249.122L418.828 261.496C418.328 263.308 418.531 265.369 418.921 266.246C419.326 267.156 419.663 271.553 419.845 274.417C419.303 274.419 418.744 274.411 418.168 274.396C417.563 271.33 416.246 267.043 416.018 266.704C415.713 266.246 416.018 263.038 416.629 262.58C417.24 262.121 418.31 248.525 417.851 248.372C417.393 248.22 417.546 245.012 418.31 244.401C419.074 243.789 418.921 230.804 418.463 230.499C418.004 230.193 418.31 226.527 418.768 226.069C419.126 225.711 419.391 217.049 419.489 213.281C420.299 213.499 420.742 213.734 420.785 213.987C421.09 223.458 420.326 226.666 419.41 227.735C418.951 229.874 420.021 230.943 420.021 230.943C420.021 230.943 420.785 243.165 419.562 245.303Z" fill="#578449"/>
<path d="M222.617 286.716C222.617 286.716 220.173 293.744 222.159 294.66C224.145 295.577 239.115 297.257 246.906 297.41C254.698 297.563 416.17 296.188 418.309 295.577C420.448 294.966 425.031 294.355 424.267 291.299C423.503 288.244 423.045 286.869 423.045 286.869C423.045 286.869 420.6 287.633 416.476 287.938C412.351 288.244 247.976 288.702 247.976 288.702C247.976 288.702 231.019 289.772 222.617 286.716Z" fill="#A6BCBA"/>
<path d="M360.438 228.744C363.123 228.744 365.301 230.921 365.301 233.607V269.554C365.301 272.24 363.123 274.418 360.438 274.418H284.526C281.85 274.418 279.677 272.256 279.663 269.581L279.66 269.032L279.643 265.841L279.472 233.633C279.458 230.937 281.639 228.744 284.335 228.744H360.438Z" fill="#5D7853"/>
<path d="M255.228 254.319H241.632V261.638C241.632 263.036 242.232 264.293 243.172 265.138L243.007 265.165C243.007 265.165 243.771 266.693 245.145 266.846C246.52 266.999 253.596 266.918 253.853 266.693C255.075 265.624 255.075 263.179 255.075 263.179L254.968 263.197C255.136 262.71 255.228 262.185 255.228 261.638V254.319Z" fill="#A8524C"/>
<path d="M255.461 250.253V260.274C255.461 262.802 253.393 264.871 250.865 264.871H245.698C243.17 264.871 241.102 262.802 241.102 260.274V250.253H255.461Z" fill="#C45F4E"/>
<path d="M255.461 238.429V250.169H241.102V238.429C241.102 237.344 241.989 236.457 243.074 236.457H253.489C254.574 236.457 255.461 237.344 255.461 238.429Z" fill="#C45F4E"/>
<path d="M255.461 249.628H241.102V250.794H255.461V249.628Z" fill="#A8524C"/>
<path d="M401.424 254.319H387.828V261.638C387.828 263.036 388.428 264.293 389.368 265.138L389.203 265.165C389.203 265.165 389.967 266.693 391.342 266.846C392.717 266.999 399.792 266.918 400.049 266.693C401.271 265.624 401.271 263.179 401.271 263.179L401.165 263.197C401.332 262.71 401.424 262.185 401.424 261.638V254.319Z" fill="#A8524C"/>
<path d="M401.659 250.254V260.275C401.659 262.803 399.59 264.871 397.062 264.871H391.896C389.367 264.871 387.299 262.803 387.299 260.275V250.254H401.659Z" fill="#C45F4E"/>
<path d="M401.659 238.429V250.169H387.299V238.429C387.299 237.345 388.186 236.457 389.271 236.457H399.687C400.771 236.457 401.659 237.345 401.659 238.429Z" fill="#C45F4E"/>
<path d="M401.659 249.629H387.299V250.794H401.659V249.629Z" fill="#A8524C"/>
<path opacity="0.5" d="M419.472 214.538L419.44 216.86C388.779 216.079 272.798 213.316 255.435 215.815C243.026 217.601 231.584 217.709 224.671 217.534C224.856 216.541 225.042 215.644 225.195 214.947C230.781 216.226 258.302 212.576 268.524 213.771H330.546C334.213 213.771 371.334 213.313 375.001 213.924C378.667 214.535 401.735 214.382 403.415 214.077C405.096 213.771 414.261 213.313 416.247 213.313C417.393 213.313 418.487 214.025 419.472 214.538Z" fill="#18604D"/>
<path d="M413.926 132.914C413.92 133.302 413.881 133.585 413.803 133.722L413.926 132.914Z" fill="#243D38"/>
<path d="M421.135 209.341C421.135 209.341 419.608 205.369 418.386 196.967C417.163 188.565 413.192 134.792 413.803 133.722L413.926 132.914C413.96 130.962 413.196 126.344 412.805 124.118C412.805 124.118 412.805 124.118 412.805 124.116C412.671 123.356 412.581 122.876 412.581 122.876C412.581 122.876 413.803 119.21 412.886 117.682C412.626 117.25 412.49 116.512 412.426 115.678C412.266 113.557 412.581 110.807 412.581 110.807C404.637 94.0033 392.263 91.4063 388.444 90.1842C384.625 88.9621 376.681 88.6566 376.681 88.6566C376.681 88.6566 285.022 86.6706 259.663 88.6566C234.304 90.6425 227.429 110.655 227.429 110.655L226.736 114.999L225.978 119.744C226.882 123.104 226.366 128.649 226.184 132.221C226.172 132.477 226.16 132.725 226.152 132.96C226.138 133.32 226.131 133.652 226.131 133.951C226.131 137.159 226.895 176.878 226.895 179.781C226.895 182.129 226.083 199.559 225.055 208.974C224.812 211.199 224.557 212.975 224.298 214C224.007 214.451 224.351 214.756 225.194 214.947C230.781 216.226 258.302 212.576 268.523 213.771H330.546C334.212 213.771 371.334 213.313 375 213.924C378.667 214.535 401.734 214.382 403.415 214.077C405.095 213.771 414.261 213.313 416.247 213.313C416.782 213.313 417.306 213.467 417.813 213.686C418.39 213.935 418.946 214.265 419.472 214.538C420.194 214.915 420.859 215.187 421.441 214.993C422.816 214.535 421.135 209.341 421.135 209.341Z" fill="#EFD35B"/>
<path d="M349.608 188.947H289.176C280.547 188.947 273.486 181.886 273.486 173.257V153.766C273.486 145.137 280.547 138.076 289.176 138.076H349.608C358.238 138.076 365.298 145.137 365.298 153.766V173.257C365.298 181.886 358.238 188.947 349.608 188.947Z" fill="#5D6369"/>
<path opacity="0.49" d="M225.072 208.509C241.227 206.843 257.48 206.243 273.712 205.929C289.95 205.638 306.176 205.497 322.415 205.389C323.429 205.385 324.444 205.375 325.459 205.379L328.504 205.39L334.594 205.411C338.654 205.42 342.714 205.447 346.774 205.508C350.833 205.569 354.892 205.643 358.95 205.726L365.037 205.859L371.124 206.019C375.181 206.131 379.238 206.238 383.295 206.368L395.464 206.759C403.576 207.042 411.688 207.32 419.799 207.668C403.564 207.635 387.33 207.428 371.1 207.21L358.929 207.064C354.872 207.017 350.815 206.979 346.758 206.954L340.673 206.914C338.645 206.898 336.617 206.908 334.589 206.904L328.504 206.9L325.462 206.899C324.448 206.897 323.433 206.912 322.419 206.916L298.073 207.033L273.727 207.116C257.501 207.206 241.277 207.473 225.072 208.509Z" fill="#BFA949"/>
<path opacity="0.49" d="M413.927 132.914L413.803 133.722C407.005 129.827 395.7 130.743 395.7 130.743C395.7 130.743 279.905 131.507 254.698 131.049C235.554 130.701 228.728 131.839 226.153 132.96C226.16 132.725 226.173 132.477 226.185 132.221C226.367 128.649 226.883 123.104 225.979 119.744L226.736 114.999C232.089 110.067 241.69 104.162 256.99 104.162C283.265 104.162 382.715 104.162 382.715 104.162C382.715 104.162 398.271 102.865 412.427 115.678C412.491 116.512 412.627 117.25 412.887 117.682C413.803 119.21 412.581 122.876 412.581 122.876C412.581 122.876 412.671 123.356 412.806 124.116C412.806 124.118 412.806 124.118 412.806 124.118C413.196 126.344 413.96 130.962 413.927 132.914Z" fill="#BFA949"/>
<path d="M421.441 214.993C420.859 215.187 420.195 214.915 419.472 214.538C418.946 214.265 418.39 213.935 417.813 213.686C416.641 200.888 413.085 170.042 412.963 165.879C412.81 160.685 412.352 141.59 412.352 130.896C412.352 128.223 412.533 125.98 412.805 124.118C413.274 126.785 414.278 132.89 413.803 133.722C413.192 134.792 417.164 188.565 418.386 196.967C419.608 205.369 421.136 209.341 421.136 209.341C421.136 209.341 422.816 214.535 421.441 214.993Z" fill="#BFA949"/>
<path d="M225.056 208.974C226.084 199.559 226.895 182.129 226.895 179.781C226.895 176.878 226.131 137.159 226.131 133.951C226.131 133.456 226.153 132.871 226.185 132.22C227.271 136.764 228.423 144.263 228.423 155.644C228.423 173.58 229.27 198.296 225.056 208.974Z" fill="#BFA949"/>
<path d="M226.246 115.485C226.357 115.114 226.478 114.778 226.61 114.434C226.741 114.093 226.882 113.757 227.028 113.424C227.323 112.758 227.648 112.108 227.99 111.468C228.686 110.194 229.47 108.971 230.336 107.81C231.202 106.65 232.149 105.551 233.164 104.523C234.18 103.495 235.259 102.528 236.409 101.656C237.558 100.784 238.746 99.9608 240.001 99.2518L240.467 98.9781L240.944 98.7255L241.9 98.2223L242.877 97.762L243.365 97.5327L243.863 97.3254C246.513 96.2035 249.282 95.3855 252.1 94.843C249.295 95.4478 246.55 96.3262 243.94 97.5004L243.449 97.7173L242.969 97.9561L242.009 98.4347L241.071 98.9551L240.603 99.2161L240.148 99.4979C238.919 100.228 237.761 101.069 236.645 101.956C235.528 102.843 234.486 103.82 233.508 104.854C232.53 105.889 231.623 106.989 230.799 108.147C229.975 109.305 229.233 110.521 228.581 111.779C228.261 112.412 227.958 113.053 227.686 113.705C227.552 114.032 227.422 114.36 227.303 114.692C227.185 115.02 227.071 115.363 226.984 115.682L226.246 115.485Z" fill="#BFA949"/>
<path d="M387.886 94.7676C388.08 94.7616 388.232 94.7725 388.402 94.7813C388.567 94.794 388.73 94.8082 388.892 94.8286C389.217 94.8658 389.537 94.9204 389.855 94.9804C390.491 95.1035 391.114 95.2702 391.726 95.4627C392.953 95.8444 394.135 96.3451 395.276 96.9159C396.417 97.4876 397.517 98.1342 398.58 98.8314C399.64 99.5346 400.659 100.294 401.652 101.084C403.621 102.685 405.463 104.432 407.188 106.283C408.91 108.138 410.521 110.09 412.045 112.106C410.471 110.129 408.812 108.221 407.05 106.415C405.284 104.613 403.408 102.921 401.416 101.385C400.412 100.626 399.385 99.9005 398.322 99.2331C397.255 98.5716 396.158 97.963 395.026 97.4313C393.894 96.9003 392.729 96.4416 391.534 96.1028C390.938 95.9317 390.334 95.7865 389.726 95.6847C389.422 95.6353 389.118 95.5911 388.814 95.5643C388.662 95.549 388.511 95.5398 388.361 95.532L388.137 95.5267C388.066 95.5262 387.985 95.5268 387.93 95.5302L387.886 94.7676Z" fill="#BFA949"/>
<path d="M413.045 119.21C412.068 117.27 410.895 115.426 409.524 113.737C409.438 113.631 409.356 113.523 409.267 113.42L408.998 113.113L408.458 112.501C408.077 112.114 407.713 111.707 407.309 111.342C406.528 110.583 405.683 109.892 404.803 109.247C404.581 109.091 404.365 108.923 404.136 108.775L403.452 108.325L402.75 107.903C402.518 107.759 402.273 107.637 402.035 107.503C401.073 106.985 400.076 106.531 399.051 106.147C398.026 105.764 396.973 105.449 395.903 105.21C394.831 104.981 393.743 104.804 392.644 104.773C393.744 104.772 394.84 104.917 395.922 105.117C397.003 105.326 398.071 105.611 399.115 105.967C400.159 106.324 401.179 106.753 402.168 107.249C402.412 107.377 402.664 107.494 402.903 107.633L403.626 108.04L404.332 108.476C404.569 108.619 404.793 108.783 405.024 108.936C405.935 109.564 406.816 110.243 407.634 110.992C408.056 111.353 408.438 111.755 408.839 112.14L409.407 112.748L409.691 113.053C409.784 113.155 409.871 113.263 409.962 113.369C411.412 115.052 412.666 116.902 413.723 118.858L413.045 119.21Z" fill="#BFA949"/>
</g>
</g>
<defs>
<clipPath id="clip0_1322_8833">
<rect width="641" height="452" fill="white"/>
</clipPath>
<clipPath id="clip1_1322_8833">
<rect width="491" height="496" fill="white" transform="translate(75 -22)"/>
</clipPath>
<clipPath id="clip2_1322_8833">
<rect width="242.133" height="276.657" fill="white" transform="translate(199.434 87.6714)"/>
</clipPath>
</defs>
</svg>
